<?xml version="1.0" standalone="no"?>
<!DOCTYPE svg PUBLIC "-//W3C//DTD SVG 20010904//EN"
 "http://www.w3.org/TR/2001/REC-SVG-20010904/DTD/svg10.dtd">
<svg version="1.0" xmlns="http://www.w3.org/2000/svg"
 width="260.000000pt" height="260.000000pt" viewBox="0 0 260.000000 260.000000"
 preserveAspectRatio="xMidYMid meet">
<metadata>
Created by potrace 1.11, written by Peter Selinger 2001-2013
</metadata>
<g transform="translate(0.000000,260.000000) scale(0.100000,-0.100000)"
fill="#000000" stroke="none">
<path d="M174 2586 c-60 -19 -107 -58 -140 -118 l-29 -53 -3 -1095 c-2 -819 0
-1106 9 -1138 17 -60 60 -116 116 -149 l48 -28 1125 0 1125 0 47 28 c53 31 94
79 114 134 20 57 20 2189 0 2255 -19 64 -57 110 -118 144 l-53 29 -1100 2
c-880 1 -1108 -1 -1141 -11z m991 -980 c33 -15 70 -37 83 -48 l22 -22 -27 -28
c-32 -33 -44 -35 -68 -8 -53 58 -212 67 -298 17 -119 -70 -158 -222 -90 -349
61 -113 216 -161 338 -104 28 12 56 30 64 40 13 16 16 15 43 -10 15 -15 28
-33 28 -40 0 -17 -85 -72 -134 -86 -23 -7 -77 -12 -121 -12 -140 1 -248 62
-310 175 -25 46 -30 68 -33 144 -3 74 0 100 17 146 37 97 117 170 224 205 68
22 190 13 262 -20z m680 0 c33 -15 70 -37 83 -48 l22 -22 -27 -28 c-15 -15
-30 -28 -35 -28 -4 0 -28 15 -54 33 -43 30 -50 32 -137 32 -82 0 -97 -3 -139
-27 -184 -109 -158 -392 43 -463 87 -31 223 -6 268 49 13 16 16 15 43 -10 15
-15 28 -33 28 -40 0 -17 -85 -72 -134 -86 -23 -7 -77 -12 -121 -12 -140 1
-248 62 -310 175 -25 46 -30 68 -33 144 -3 74 0 100 17 146 37 97 117 170 224
205 68 22 190 13 262 -20z"/>
</g>
</svg>
